<?xml version="1.0" encoding="UTF-8" standalone="no"?>
<svg width="47px" height="40px" viewBox="0 0 47 40" version="1.1" xmlns="http://www.w3.org/2000/svg" xmlns:xlink="http://www.w3.org/1999/xlink" xmlns:sketch="http://www.bohemiancoding.com/sketch/ns">
    <!-- Generator: Sketch 3.4 (15575) - http://www.bohemiancoding.com/sketch -->
    <title>car</title>
    <desc>Created with Sketch.</desc>
    <defs></defs>
    <g id="Page-1" stroke="none" stroke-width="1" fill="none" fill-rule="evenodd" sketch:type="MSPage">
        <g id="car" sketch:type="MSArtboardGroup" transform="translate(-1.000000, -4.000000)" fill="#FFFFFF">
            <path d="M47.0848165,31.947 L45.1338165,20.871 C44.9358165,19.746 43.9578165,18.91 42.8158165,18.91 L41.5038165,18.91 L41.0068165,13.733 C40.4738165,8.184 35.8678165,4 30.2938165,4 L17.8608165,4 C12.2868165,4 7.68081646,8.185 7.14781646,13.733 L6.65081646,18.91 L5.33981646,18.91 C4.19781646,18.91 3.21981646,19.746 3.02181646,20.871 L1.07081646,31.939 C0.828816465,33.309 1.21481646,34.721 2.10981646,35.788 C2.96981646,36.813 4.22181646,37.425 5.56481646,37.471 L5.56481646,39.308 C5.56481646,41.91 7.65481646,43.995 10.2558165,43.995 L11.7368165,43.995 C14.3378165,43.995 16.4458165,41.91 16.4458165,39.308 L16.4458165,37.494 L31.7088165,37.494 L31.7088165,39.307 C31.7088165,41.908 33.8178165,43.995 36.4188165,43.995 L37.9008165,43.995 C40.5018165,43.995 42.5908165,41.907 42.5908165,39.307 L42.5908165,37.472 C43.9328165,37.426 45.1848165,36.82 46.0448165,35.794 C46.9408165,34.726 47.3278165,33.318 47.0848165,31.947 L47.0848165,31.947 Z M9.69481646,33.234 C7.49881646,33.234 5.71881646,31.453 5.71881646,29.256 C5.71881646,27.059 7.49881646,25.28 9.69481646,25.28 C11.8908165,25.28 13.6718165,27.059 13.6718165,29.256 C13.6718165,31.453 11.8908165,33.234 9.69481646,33.234 L9.69481646,33.234 Z M10.6848165,18.909 L11.1448165,14.123 C11.4788165,10.644 14.3668165,8.026 17.8618165,8.026 L18.5678165,8.026 L18.5678165,9.536 C18.5678165,10.84 19.6158165,11.913 20.9198165,11.913 L27.2378165,11.913 C28.5418165,11.913 29.5898165,10.84 29.5898165,9.536 L29.5898165,8.026 L30.2958165,8.026 C33.7908165,8.026 36.6788165,10.644 37.0128165,14.123 L37.4728165,18.909 L10.6848165,18.909 L10.6848165,18.909 Z M38.4608165,33.234 C36.2648165,33.234 34.4848165,31.453 34.4848165,29.256 C34.4848165,27.059 36.2648165,25.28 38.4608165,25.28 C40.6568165,25.28 42.4368165,27.059 42.4368165,29.256 C42.4368165,31.453 40.6568165,33.234 38.4608165,33.234 L38.4608165,33.234 Z" sketch:type="MSShapeGroup"></path>
        </g>
    </g>
</svg>