<?xml version="1.0" encoding="UTF-8" standalone="no"?>
<svg width="32px" height="47px" viewBox="0 0 32 47" version="1.1" xmlns="http://www.w3.org/2000/svg" xmlns:xlink="http://www.w3.org/1999/xlink" xmlns:sketch="http://www.bohemiancoding.com/sketch/ns">
    <!-- Generator: Sketch 3.4 (15575) - http://www.bohemiancoding.com/sketch -->
    <title>church</title>
    <desc>Created with Sketch.</desc>
    <defs></defs>
    <g id="Page-1" stroke="none" stroke-width="1" fill="none" fill-rule="evenodd" sketch:type="MSPage">
        <g id="church" sketch:type="MSArtboardGroup" transform="translate(-8.000000, -1.000000)" fill="#FFFFFF">
            <path d="M38.3160492,28.946 L30.0740492,21.767 L30.0740492,15.731 L30.8730492,15.731 C31.1840492,15.731 31.4740492,15.552 31.5930492,15.265 C31.7120492,14.978 31.6540492,14.656 31.4340492,14.436 L25.0980492,8.085 L25.0980492,6.791 L26.0620492,6.791 C26.8880492,6.791 27.5580492,6.12 27.5580492,5.293 C27.5580492,4.467 26.8880492,3.796 26.0620492,3.796 L25.0980492,3.796 L25.0980492,2.508 C25.0980492,1.675 24.4230492,1 23.5900492,1 C22.7570492,1 22.0810492,1.675 22.0810492,2.508 L22.0810492,3.796 L21.1230492,3.796 C20.2980492,3.796 19.6280492,4.467 19.6280492,5.293 C19.6280492,6.119 20.2980492,6.791 21.1230492,6.791 L22.0810492,6.791 L22.0810492,8.084 L15.7480492,14.434 C15.5290492,14.654 15.4720492,14.977 15.5910492,15.264 C15.7100492,15.552 16.0010492,15.73 16.3120492,15.73 L17.1050492,15.73 L17.1050492,21.766 L8.86404916,28.946 C8.06604916,29.642 7.79204916,30.687 8.16304916,31.677 C8.53504916,32.668 9.49204916,33.192 10.5500492,33.192 L11.0920492,33.192 L11.0920492,46.406 C11.0920492,46.831 11.5010492,47.176 11.9250492,47.176 L20.0110492,47.176 L20.0110492,39.14 C20.0110492,37.155 21.6030492,35.546 23.5890492,35.546 C25.5740492,35.546 27.1660492,37.155 27.1660492,39.14 L27.1660492,47.176 L35.2590492,47.176 C35.6830492,47.176 36.0850492,46.831 36.0850492,46.406 L36.0850492,33.193 L36.6340492,33.193 C37.6920492,33.193 38.6470492,32.669 39.0190492,31.678 C39.3910492,30.687 39.1130492,29.642 38.3160492,28.946 L38.3160492,28.946 Z M25.6480492,21.592 C25.6480492,21.904 25.4060492,22.139 25.0930492,22.139 L22.1380492,22.139 C21.8250492,22.139 21.5510492,21.904 21.5510492,21.592 L21.5510492,18.125 C21.5510492,16.998 22.4700492,16.083 23.5990492,16.083 C24.7270492,16.083 25.6480492,16.997 25.6480492,18.125 L25.6480492,21.592 L25.6480492,21.592 Z" sketch:type="MSShapeGroup"></path>
        </g>
    </g>
</svg>