<?xml version="1.0" encoding="UTF-8" standalone="no"?>
<svg width="41px" height="47px" viewBox="0 0 41 47" version="1.1" xmlns="http://www.w3.org/2000/svg" xmlns:xlink="http://www.w3.org/1999/xlink" xmlns:sketch="http://www.bohemiancoding.com/sketch/ns">
    <!-- Generator: Sketch 3.4 (15575) - http://www.bohemiancoding.com/sketch -->
    <title>flip-flops</title>
    <desc>Created with Sketch.</desc>
    <defs></defs>
    <g id="Page-1" stroke="none" stroke-width="1" fill="none" fill-rule="evenodd" sketch:type="MSPage">
        <g id="flip-flops" sketch:type="MSArtboardGroup" transform="translate(-4.000000, -1.000000)" fill="#FFFFFF">
            <path d="M23.3200272,4.8572755 C21.1360272,1.0952755 13.3910272,-2.2527245 7.17402725,6.7392755 C5.82202725,8.6972755 4.91502725,11.9292755 4.42902725,15.6212755 L17.1120272,6.7232755 C17.6770272,6.3252755 18.4020272,6.2472755 19.0440272,6.5122755 C19.6810272,6.7772755 20.1390272,7.3492755 20.2570272,8.0292755 L21.8650272,17.3342755 C21.9220272,17.2202755 21.9760272,17.1072755 22.0280272,16.9962755 C23.0310272,14.8342755 25.8040272,9.1282755 23.3200272,4.8572755 Z M18.7930272,23.2292755 L16.9720272,12.6962755 C16.9400272,12.5112755 16.8160272,12.3562755 16.6430272,12.2842755 C16.4700272,12.2142755 16.2740272,12.2342755 16.1220272,12.3422755 L4.02302725,20.8282755 C3.84202725,27.2172755 4.73102725,33.8412755 6.58502725,37.2252755 C9.35402725,42.2822755 13.7840272,43.2182755 16.8580272,39.1852755 C18.3280272,37.2582755 18.3560272,34.3892755 18.1570272,32.6322755 C18.0040272,31.2852755 17.2350272,29.2232755 17.7290272,26.6232755 C17.9580272,25.4272755 18.3410272,24.2942755 18.7930272,23.2292755 Z M44.6820272,17.0842755 C42.6010272,6.3522755 34.1650272,6.3092755 30.6520272,8.8752755 C26.6620272,11.7892755 26.9090272,18.1292755 26.9610272,20.5102755 C26.9630272,20.6332755 26.9690272,20.7582755 26.9740272,20.8852755 L32.1870272,13.0102755 C32.5680272,12.4362755 33.2160272,12.0942755 33.9070272,12.1092755 C34.5990272,12.1252755 35.2330272,12.4872755 35.5920272,13.0792755 L43.6300272,26.3222755 C44.6660272,22.7452755 45.1350272,19.4202755 44.6820272,17.0842755 Z M33.7840272,18.3602755 C33.5960272,18.3562755 33.4230272,18.4482755 33.3180272,18.6042755 L27.4190272,27.5182755 C27.4050272,28.6762755 27.3010272,29.8672755 27.0270272,31.0542755 C26.4370272,33.6342755 24.9050272,35.2122755 24.2220272,36.3862755 C23.3340272,37.9142755 22.2090272,40.5532755 22.7800272,42.9072755 C23.9750272,47.8372755 28.4090272,48.7572755 32.9760272,45.2382755 C36.0320272,42.8842755 39.5080272,37.1752755 41.9080272,31.2532755 L34.2410272,18.6212755 C34.1420272,18.4622755 33.9710272,18.3642755 33.7840272,18.3602755 Z" sketch:type="MSShapeGroup"></path>
        </g>
    </g>
</svg>