<?xml version="1.0" encoding="UTF-8" standalone="no"?>
<svg width="39px" height="47px" viewBox="0 0 39 47" version="1.1" xmlns="http://www.w3.org/2000/svg" xmlns:xlink="http://www.w3.org/1999/xlink" xmlns:sketch="http://www.bohemiancoding.com/sketch/ns">
    <!-- Generator: Sketch 3.4 (15575) - http://www.bohemiancoding.com/sketch -->
    <title>fresh</title>
    <desc>Created with Sketch.</desc>
    <defs></defs>
    <g id="Page-1" stroke="none" stroke-width="1" fill="none" fill-rule="evenodd" sketch:type="MSPage">
        <g id="fresh" sketch:type="MSArtboardGroup" transform="translate(-5.000000, -1.000000)" fill="#FFFFFF">
            <path d="M42.8601103,12.6664493 C43.5551103,11.8084493 43.4231103,10.5484493 42.5661103,9.85344931 L32.8001103,1.93444931 C31.7451103,1.08044931 30.3391103,0.78844931 29.0311103,1.15544931 C27.7241103,1.52244931 26.6741103,2.46044931 26.2191103,3.73844931 L23.5471103,11.2074493 L9.18611025,11.2074493 C8.03511025,11.2074493 6.92311025,11.7324493 6.13411025,12.5714493 C5.34611025,13.4114493 4.93611025,14.5734493 5.00811025,15.7204493 L6.73511025,43.3164493 C6.87311025,45.5174493 8.70811025,47.2074493 10.9131103,47.2074493 L25.8061103,47.2074493 C28.0111103,47.2074493 29.8461103,45.5284493 29.9841103,43.3274493 L31.7111103,15.7224493 C31.7831103,14.5744493 31.3731103,13.4444493 30.5841103,12.6044493 C29.8551103,11.8284493 28.8451103,11.3824493 27.7861103,11.3174493 L29.9911103,5.11844931 C30.0111103,5.06244931 30.0571103,5.02044931 30.1151103,5.00444931 C30.1711103,4.98744931 30.2351103,5.00244931 30.2821103,5.03944931 L40.0481103,12.9584493 C40.9061103,13.6554493 42.1641103,13.5234493 42.8601103,12.6664493 L42.8601103,12.6664493 Z M14.4841103,26.1454493 C14.4841103,25.0084493 15.4091103,24.0824493 16.5471103,24.0824493 C17.4581103,24.0824493 18.2241103,24.6804493 18.4961103,25.5014493 L18.2451103,26.2074493 L14.4901103,26.2074493 C14.4901103,26.1864493 14.4841103,26.1664493 14.4841103,26.1454493 L14.4841103,26.1454493 Z M19.3181103,23.1454493 C18.5901103,22.4634493 17.6201103,22.0594493 16.5471103,22.0594493 C14.3071103,22.0594493 12.4841103,23.8924493 12.4841103,26.1334493 C12.4841103,26.1544493 12.4901103,26.1854493 12.4901103,26.2074493 L9.67111025,26.2074493 L9.38111025,21.5694493 C10.0081103,21.9684493 10.7491103,22.2074493 11.5461103,22.2074493 C13.7861103,22.2074493 15.6091103,20.3404493 15.6091103,18.1004493 C15.6091103,16.9914493 15.1601103,16.2074493 14.4371103,15.2074493 L22.1251103,15.2074493 L19.3181103,23.1454493 L19.3181103,23.1454493 Z M13.6091103,18.1454493 C13.6091103,19.2824493 12.6841103,20.2084493 11.5461103,20.2084493 C10.4081103,20.2084493 9.48311025,19.2834493 9.48311025,18.1454493 C9.48311025,17.0074493 10.4081103,16.0824493 11.5461103,16.0824493 C12.6841103,16.0824493 13.6091103,17.0074493 13.6091103,18.1454493 L13.6091103,18.1454493 Z M27.5321103,15.2074493 C27.5841103,15.2074493 27.6341103,15.2734493 27.6681103,15.3104493 C27.7031103,15.3474493 27.7211103,15.4204493 27.7181103,15.4724493 L27.0471103,26.2074493 L22.4901103,26.2074493 L26.3701103,15.2074493 L27.5321103,15.2074493 L27.5321103,15.2074493 Z M16.5461103,10.2074493 C18.7861103,10.2074493 20.6091103,8.38544931 20.6091103,6.14444931 C20.6091103,3.90344931 18.7871103,2.08144931 16.5461103,2.08144931 C14.3051103,2.08144931 12.4831103,3.90344931 12.4831103,6.14444931 C12.4831103,8.38544931 14.3061103,10.2074493 16.5461103,10.2074493 L16.5461103,10.2074493 Z M16.5461103,4.08244931 C17.6841103,4.08244931 18.6091103,5.00744931 18.6091103,6.14544931 C18.6091103,7.28344931 17.6841103,8.20744931 16.5461103,8.20744931 C15.4081103,8.20744931 14.4831103,7.28244931 14.4831103,6.14444931 C14.4831103,5.00644931 15.4091103,4.08244931 16.5461103,4.08244931 L16.5461103,4.08244931 Z" sketch:type="MSShapeGroup"></path>
        </g>
    </g>
</svg>