<?xml version="1.0" encoding="UTF-8" standalone="no"?>
<svg width="46px" height="46px" viewBox="0 0 46 46" version="1.1" xmlns="http://www.w3.org/2000/svg" xmlns:xlink="http://www.w3.org/1999/xlink" xmlns:sketch="http://www.bohemiancoding.com/sketch/ns">
    <!-- Generator: Sketch 3.4 (15575) - http://www.bohemiancoding.com/sketch -->
    <title>lunch</title>
    <desc>Created with Sketch.</desc>
    <defs></defs>
    <g id="Page-1" stroke="none" stroke-width="1" fill="none" fill-rule="evenodd" sketch:type="MSPage">
        <g id="lunch" sketch:type="MSArtboardGroup" transform="translate(-1.000000, -1.000000)" fill="#FFFFFF">
            <path d="M21.679,39.633 C22.287,39.702 22.905,39.738 23.531,39.738 C24.233,39.738 24.926,39.694 25.605,39.606 L25.911,29.824 C25.286,29.558 24.716,29.163 24.246,28.659 C23.322,27.666 22.847,26.322 22.944,24.972 L23.425,18.238 C22.855,19.057 22.03,19.686 21.067,20.009 L21.679,39.633 Z M35.961,4.753 L35.961,9.021 C40.076,12.532 42.639,17.735 42.639,23.532 C42.639,29.33 40.076,34.534 35.961,38.045 L35.961,42.313 C42.096,38.277 46.039,31.374 46.039,23.533 C46.039,15.691 42.096,8.788 35.961,4.753 Z M24.289,3.278 L24.289,4.414 C24.364,4.42 24.539,4.426 24.671,4.434 C25.117,3.167 25.913,2.069 26.946,1.256 C25.835,1.088 24.693,1 23.534,1 C23.384,1 23.246,1.003 23.097,1.006 C23.811,1.51 24.289,2.34 24.289,3.278 Z M35.961,13.174 L35.961,14.987 L35.961,28.269 L35.961,33.891 C38.356,31.08 39.712,27.468 39.712,23.532 C39.712,19.596 38.355,15.984 35.961,13.174 Z M9.191,15.988 C8.001,18.243 7.325,20.809 7.325,23.531 C7.325,27.837 9.012,31.754 11.759,34.659 L12.218,19.955 C10.567,19.336 9.356,17.811 9.191,15.988 Z M25.503,42.888 L25.513,42.562 C24.861,42.63 24.2,42.666 23.532,42.666 C22.939,42.666 22.352,42.637 21.772,42.584 L21.783,42.933 C21.817,44.016 21.425,45.084 20.704,45.888 C21.63,46.004 22.574,46.065 23.532,46.065 C24.565,46.065 25.582,45.994 26.578,45.859 C25.858,45.046 25.468,43.973 25.503,42.888 Z M4.4,23.531 C4.4,18.696 6.182,14.275 9.174,10.904 L9.174,6.167 C4.161,10.3 1,16.544 1,23.531 C1,31.557 5.195,38.601 11.512,42.594 L11.64,38.51 C7.232,35 4.4,29.59 4.4,23.531 Z M31.235,1.741 C28.602,1.741 26.416,3.757 26.229,6.385 L24.89,25.119 C24.831,25.933 25.115,26.751 25.673,27.35 C26.231,27.949 27.013,28.302 27.831,28.302 L27.911,28.302 L27.453,42.966 C27.433,43.595 27.669,44.203 28.106,44.656 C28.544,45.107 29.145,45.36 29.773,45.36 L31.697,45.36 C32.979,45.36 34.016,44.304 34.016,43.022 L34.016,28.268 L34.016,14.986 L34.016,4.486 C34.016,2.949 32.772,1.741 31.235,1.741 Z M19.061,18.276 L19.58,18.276 C21.091,18.276 22.343,17.075 22.343,15.564 L22.343,3.278 C22.343,2.817 21.942,2.415 21.481,2.415 L21.287,2.415 C20.825,2.415 20.473,2.817 20.473,3.278 L20.473,11.401 C20.473,12.121 19.868,12.74 19.149,12.74 L18.955,12.74 C18.236,12.74 17.63,12.121 17.63,11.401 L17.63,3.278 C17.63,2.817 17.278,2.415 16.817,2.415 L16.623,2.415 C16.162,2.415 15.759,2.817 15.759,3.278 L15.759,11.401 C15.759,12.121 15.205,12.74 14.485,12.74 L14.292,12.74 C13.572,12.74 12.991,12.121 12.991,11.401 L12.991,3.278 C12.991,2.817 12.616,2.415 12.154,2.415 L11.96,2.415 C11.499,2.415 11.121,2.817 11.121,3.278 L11.121,15.564 C11.121,17.075 12.35,18.276 13.861,18.276 L14.223,18.276 L13.451,42.983 C13.432,43.599 13.663,44.211 14.094,44.656 C14.524,45.098 15.115,45.361 15.733,45.361 L17.552,45.361 C18.169,45.361 18.76,45.098 19.191,44.654 C19.621,44.211 19.853,43.599 19.833,42.982 L19.061,18.276 Z" sketch:type="MSShapeGroup"></path>
        </g>
    </g>
</svg>