<?xml version="1.0" encoding="UTF-8" standalone="no"?>
<svg width="32px" height="32px" viewBox="0 0 32 32" version="1.1" xmlns="http://www.w3.org/2000/svg" xmlns:xlink="http://www.w3.org/1999/xlink" xmlns:sketch="http://www.bohemiancoding.com/sketch/ns">
    <!-- Generator: Sketch 3.4 (15575) - http://www.bohemiancoding.com/sketch -->
    <title>Artboard 27 Copy</title>
    <desc>Created with Sketch.</desc>
    <defs></defs>
    <g id="Page-1" stroke="none" stroke-width="1" fill="none" fill-rule="evenodd" sketch:type="MSPage">
        <g id="Artboard-27-Copy" sketch:type="MSArtboardGroup" fill="#01CD9E">
            <path d="M30,16 L30,13.2536265 C30,12.0096468 28.9906903,11 27.7466807,11 L4.2533193,11 C3.00304046,11 2,12.0051836 2,13.2536265 L2,16 L30,16 Z M29.8033447,18 C29.4519126,18.7842305 28.6661542,19.3278689 27.7466807,19.3278689 L4.2533193,19.3278689 C3.33920202,19.3278689 2.55181173,18.7827064 2.19848745,18 L29.8033447,18 Z M0,13.2536265 L0,17.0742424 C0,19.422642 1.90459071,21.3278689 4.2533193,21.3278689 L27.7466807,21.3278689 C30.1024858,21.3278689 32,19.4263002 32,17.0742424 L32,13.2536265 C32,10.9052268 30.0954093,9 27.7466807,9 L4.2533193,9 C1.89751422,9 0,10.9015686 0,13.2536265 Z M24.8173898,23.8499243 C24.8061543,23.9051809 24.7928249,23.9865356 24.7805595,24.0904749 C24.713925,24.655145 24.7419746,25.2698361 24.9413373,25.8784053 C25.2866418,26.9324721 26.0856804,27.7041219 27.3337996,27.9769348 C27.8733458,28.0948684 28.4063385,27.7530839 28.5242721,27.2135377 C28.6422057,26.6739915 28.3004212,26.1409988 27.7608749,26.0230652 C27.2312164,25.9072928 26.9740136,25.6589062 26.8419518,25.2557781 C26.7467562,24.9651868 26.7312682,24.6257743 26.7667778,24.3248605 C26.7722638,24.2783711 26.7766859,24.2513814 26.7772848,24.2484363 C26.8873308,23.7072263 26.5378033,23.1792789 25.9965933,23.0692329 C25.4553832,22.9591868 24.9274358,23.3087143 24.8173898,23.8499243 L24.8173898,23.8499243 Z M18.5673898,23.8499243 C18.5561543,23.9051809 18.5428249,23.9865356 18.5305595,24.0904749 C18.463925,24.655145 18.4919746,25.2698361 18.6913373,25.8784053 C19.0366418,26.9324721 19.8356804,27.7041219 21.0837996,27.9769348 C21.6233458,28.0948684 22.1563385,27.7530839 22.2742721,27.2135377 C22.3922057,26.6739915 22.0504212,26.1409988 21.5108749,26.0230652 C20.9812164,25.9072928 20.7240136,25.6589062 20.5919518,25.2557781 C20.4967562,24.9651868 20.4812682,24.6257743 20.5167778,24.3248605 C20.5222638,24.2783711 20.5266859,24.2513814 20.5272848,24.2484363 C20.6373308,23.7072263 20.2878033,23.1792789 19.7465933,23.0692329 C19.2053832,22.9591868 18.6774358,23.3087143 18.5673898,23.8499243 L18.5673898,23.8499243 Z M11.5200525,24.2484363 C11.5206514,24.2513814 11.5250734,24.2783711 11.5305595,24.3248605 C11.5660691,24.6257743 11.550581,24.9651868 11.4553855,25.2557781 C11.3233237,25.6589062 11.0661209,25.9072928 10.5364623,26.0230652 C9.99691612,26.1409988 9.65513157,26.6739915 9.77306517,27.2135377 C9.89099877,27.7530839 10.4239915,28.0948684 10.9635377,27.9769348 C12.2116569,27.7041219 13.0106955,26.9324721 13.356,25.8784053 C13.5553627,25.2698361 13.5834123,24.655145 13.5167778,24.0904749 C13.5045124,23.9865356 13.491183,23.9051809 13.4799475,23.8499243 C13.3699014,23.3087143 12.8419541,22.9591868 12.300744,23.0692329 C11.759534,23.1792789 11.4100065,23.7072263 11.5200525,24.2484363 L11.5200525,24.2484363 Z M5.27005253,24.2484363 C5.27065135,24.2513814 5.27507344,24.2783711 5.28055946,24.3248605 C5.31606908,24.6257743 5.30058103,24.9651868 5.2053855,25.2557781 C5.07332371,25.6589062 4.81612092,25.9072928 4.28646233,26.0230652 C3.74691612,26.1409988 3.40513157,26.6739915 3.52306517,27.2135377 C3.64099877,27.7530839 4.17399146,28.0948684 4.71353767,27.9769348 C5.96165686,27.7041219 6.7606955,26.9324721 7.10599996,25.8784053 C7.30536271,25.2698361 7.33341225,24.655145 7.26677782,24.0904749 C7.25451236,23.9865356 7.24118297,23.9051809 7.22994747,23.8499243 C7.11990143,23.3087143 6.59195406,22.9591868 6.05074401,23.0692329 C5.50953397,23.1792789 5.16000648,23.7072263 5.27005253,24.2484363 L5.27005253,24.2484363 Z" id="Path" sketch:type="MSShapeGroup"></path>
        </g>
    </g>
</svg>