<?xml version="1.0" encoding="UTF-8" standalone="no"?>
<svg width="32px" height="32px" viewBox="0 0 32 32" version="1.1" xmlns="http://www.w3.org/2000/svg" xmlns:xlink="http://www.w3.org/1999/xlink" xmlns:sketch="http://www.bohemiancoding.com/sketch/ns">
    <!-- Generator: Sketch 3.4 (15575) - http://www.bohemiancoding.com/sketch -->
    <title>Flatten</title>
    <desc>Created with Sketch.</desc>
    <defs></defs>
    <g id="Page-1" stroke="none" stroke-width="1" fill="none" fill-rule="evenodd" sketch:type="MSPage">
        <g id="Flatten" sketch:type="MSArtboardGroup" fill="#01CD9E">
            <path d="M26,30 C26.5611947,30 26.9885032,29.7027394 27.3669156,29.2280424 C27.785649,28.7027652 28.1644911,27.9297618 28.629061,26.7741344 C28.7686608,26.4268769 29.2172659,25.2640329 29.1851817,25.3461118 C29.362977,24.8912701 29.4791479,24.6207945 29.5515901,24.4929254 C29.5627865,24.4726317 29.5627865,24.4726317 29.5644413,24.4695807 C29.9227649,23.8093448 30.0503803,23.7054922 30.7798788,23.310669 C31.6294467,22.8508611 32,22.2197222 32,21 C32,18.5095857 30.9801755,18 28,18 L28,18 C27.6574525,18 27.6574525,18 26.736057,18 C25.5665836,18 25.5665836,18 23.9836474,18 C22.0077955,18 21.098017,18 20,18 L20,17 C20,16.4477153 19.5522847,16 19,16 C18.4477153,16 18,16.4477153 18,17 L18,18 C17.698219,18 17.3675957,18 17.0000002,18 L17,17 C17,16.4477153 16.5522847,16 16,16 C15.4477153,16 15,16.4477153 15,17 L15,18 C14.5965544,18 14.2862987,18 14.000641,18 L14,17 C14,16.4477153 13.5522847,16 13,16 C12.4477153,16 12,16.4477153 12,17 L12,18 L11.54566,18 L6.42408832,18 L5.99650822,18 C5.98575259,14.7003583 5.9584785,4.3616647 6.03860806,4.25561087 C6.20291397,4.03814717 6.39501827,3.81984683 6.60986705,3.61842609 C7.94328789,2.36834406 9.29969744,2.33100012 11.0557596,4.425149 L11.6761851,9.44486313 C11.7744128,10.2395999 12.7203329,10.60227 13.3246923,10.0769083 L17.8529498,6.14055415 C18.4573093,5.6151925 18.2298153,4.6280041 17.4564835,4.42012638 L12.5561994,3.10289109 C10.0151423,0.116274636 7.36053457,0.173211273 5.2419848,2.15935168 C4.72069604,2.64805989 4.35290174,3.13484647 4.14250707,3.48550424 C4.04925783,3.64091965 4,3.81875605 4,4 L4,18 C2.43293054,18 1.93013232,18.0418999 1.3027864,18.3555728 C0.390347249,18.8117924 0,19.6900737 0,21 C0,22.226063 0.375122235,22.8600095 1.23954213,23.3138227 C2.03261547,23.7301796 2.16680899,23.8335797 2.57092134,24.5118431 L2.51014604,24.3922603 C2.58313175,24.5634125 3.16847953,26.220123 3.37404951,26.7516919 C3.84634455,27.9729662 4.26508251,28.8211243 4.73356362,29.3506089 C5.08638847,29.749377 5.49174133,30 6,30 L6,31 C6,31.5522847 6.44771525,32 7,32 C7.55228475,32 8,31.5522847 8,31 L8,30 L16,30 L24,30 L24,31 C24,31.5522847 24.4477153,32 25,32 C25.5522847,32 26,31.5522847 26,31 L26,30 L26,30 L26,30 Z M16,28 L6,28 C6.18177801,28 6.24194141,28.037198 6.23142911,28.0253169 C5.97298581,27.7332203 5.626817,27.0320517 5.23942025,26.0303099 C5.05445262,25.5520151 4.45278088,23.8491029 4.34985457,23.6077397 L4.28907927,23.4881569 C3.92860011,22.8831276 3.53872276,22.4360322 3.10084839,22.098637 C2.92478789,21.9629772 2.74897443,21.8504708 2.55435091,21.7432618 C2.44925349,21.6853685 2.15426195,21.5351794 2.1691983,21.5430208 C1.96938705,21.4381216 2,21.4898566 2,21 C2,20.3724263 2.07393847,20.2060648 2.1972136,20.1444272 C2.41986768,20.0331001 2.81706946,20 4,20 C4.63149459,20 4.63149459,20 6.42408832,20 C8.66626262,20 8.66626262,20 11.54566,20 C13.7237085,20 13.7237085,20 15.9980505,20 C20.3216193,20 20.3216193,20 23.9836474,20 C25.5665836,20 25.5665836,20 26.736057,20 C27.6574525,20 27.6574525,20 28,20 L28,20 C30.017261,20 30,19.991375 30,21 C30,21.4903992 30.0273468,21.4438212 29.8279124,21.5517602 C29.8717554,21.5280312 29.5566963,21.694408 29.4516484,21.7547632 C29.2622954,21.863556 29.0912403,21.9783949 28.921257,22.1167263 C28.5019825,22.4579293 28.1360591,22.9085937 27.8066338,23.5155824 C27.8042696,23.5199411 27.8042696,23.5199411 27.8019067,23.5243079 C27.6749971,23.7479247 27.5363752,24.070672 27.3224374,24.6179747 C27.3499404,24.5476155 26.9067951,25.6963071 26.7733944,26.0281441 C26.3806527,27.0050973 26.0604849,27.6583795 25.8030187,27.9813563 C25.7578844,28.0379747 25.7263863,28.0691681 25.7194453,28.0739967 C25.7758097,28.0347864 25.8706038,28 26,28 L16,28 M12.9277912,7.70029283 C12.9720167,8.05811065 13.3979025,8.22139719 13.6700059,7.98486131 L15.7087831,6.21257933 C15.9808865,5.97604346 15.8784609,5.5315773 15.5302803,5.4379836 L13.1948609,4.81020432 C12.8863136,4.72726436 12.5919577,4.98314406 12.631149,5.30023157 L12.9277912,7.70029283 Z" id="Path" sketch:type="MSShapeGroup"></path>
        </g>
    </g>
</svg>