<?xml version="1.0" encoding="UTF-8" standalone="no"?>
<svg width="32px" height="32px" viewBox="0 0 32 32" version="1.1" xmlns="http://www.w3.org/2000/svg" xmlns:xlink="http://www.w3.org/1999/xlink" xmlns:sketch="http://www.bohemiancoding.com/sketch/ns">
    <!-- Generator: Sketch 3.4 (15575) - http://www.bohemiancoding.com/sketch -->
    <title>32 copy 8</title>
    <desc>Created with Sketch.</desc>
    <defs></defs>
    <g id="Page-1" stroke="none" stroke-width="1" fill="none" fill-rule="evenodd" sketch:type="MSPage">
        <g id="32-copy-8" sketch:type="MSArtboardGroup" fill="#01CD9E">
            <path d="M20.2195252,24.6235086 L20.3407116,25.1069136 L20.552478,25.9516366 C19.6568288,26.5464295 19.0682328,27.5518761 19.0682328,28.6920528 C19.0682328,30.5189816 20.5794131,32 22.4435484,32 C24.3076837,32 25.818864,30.5189816 25.818864,28.6920528 C25.818864,26.8841408 24.3389803,25.4149754 22.5016448,25.3845856 L22.3155732,24.6423573 L20.9921417,19.363271 C23.9971939,17.554334 26,14.3055807 26,10.6008142 C26,10.0571993 25.5450635,9.61651232 24.983871,9.61651232 C23.1294362,9.61651232 23.1294362,9.61651232 19.8454279,9.61651234 C17.5565999,9.61651235 17.5565999,9.61651235 15.1071769,9.61651235 C9.6958389,9.61651236 9.6958389,9.61651236 6.01612905,9.61651232 C5.45493648,9.61651231 5,10.0571993 5,10.6008142 C5,14.1283428 6.81575941,17.2424463 9.58355978,19.0938713 L7.06012046,29.3161002 L6.82380024,30.2734124 L8.80033353,30.7312488 L9.03665375,29.7739366 L10.3080783,24.6235086 L20.2195252,24.6235086 L20.2195252,24.6235086 Z M7.07394029,11.5829059 C7.56818001,15.7075784 11.1503349,18.9106868 15.5,18.9106868 C19.8496651,18.9106868 23.43182,15.7075784 23.9260597,11.5829059 L7.07394029,11.5829059 L7.07394029,11.5829059 Z M19.7260094,22.6549047 L19.1234505,20.2513342 C17.9941678,20.657776 16.7736716,20.8796974 15.5,20.8796974 C14.0565523,20.8796974 12.6814011,20.5946702 11.4299131,20.0790552 L10.794044,22.6549047 L19.7260094,22.6549047 L19.7260094,22.6549047 Z M22.4435484,30.0313961 C23.1799592,30.0313961 23.7866059,29.4368576 23.7866059,28.6920528 C23.7866059,27.947248 23.1799592,27.3527094 22.4435484,27.3527094 C21.7071376,27.3527094 21.1004909,27.947248 21.1004909,28.6920528 C21.1004909,29.4368576 21.7071376,30.0313961 22.4435484,30.0313961 Z M19.3619814,7.86322709 C19.5834856,7.85425926 19.8768427,7.7846833 20.1756558,7.59626891 C20.6753179,7.2812107 20.9761905,6.73643374 20.9761905,5.97894499 C20.9761904,5.19736805 20.5448686,4.69985966 19.4316217,3.80820189 C19.0207411,3.47910604 18.9810392,3.44685863 18.8367024,3.32069487 C18.4360032,2.97044656 18.2619048,2.72535088 18.2619048,2.5625768 C18.2619048,2.24036026 18.4275521,1.9771829 18.7304173,1.75420342 C18.9304502,1.60693255 19.1347986,1.51455665 19.2540804,1.47758411 C19.5178428,1.3958284 19.6653884,1.11573061 19.5836327,0.851968189 C19.501877,0.588205768 19.2217792,0.440660178 18.9580168,0.522415889 C18.7412626,0.58960094 18.4415571,0.725083083 18.137536,0.94891355 C17.6003113,1.34443632 17.2619047,1.88209022 17.2619048,2.56257682 C17.2619048,3.10543962 17.5746364,3.54570303 18.1785847,4.07360995 C18.3388847,4.213727 18.3800444,4.24715852 18.8064735,4.58870793 C19.660566,5.2727954 19.9761904,5.63685258 19.9761905,5.97894508 C19.9761905,6.39287361 19.8516499,6.6183739 19.6422896,6.75038446 C19.5156894,6.83021129 19.3836332,6.86153127 19.3215285,6.86404564 C19.0456122,6.87521639 18.8309935,7.10794646 18.8421642,7.3838628 C18.853335,7.65977914 19.086065,7.87439784 19.3619814,7.86322709 Z M14.8381718,7.86322709 C15.059676,7.85425926 15.3530332,7.7846833 15.6518463,7.59626891 C16.1515083,7.2812107 16.452381,6.73643374 16.452381,5.97894499 C16.4523809,5.19736805 16.021059,4.69985966 14.9078122,3.80820189 C14.4969316,3.47910604 14.4572297,3.44685863 14.3128929,3.32069487 C13.9121937,2.97044656 13.7380952,2.72535088 13.7380952,2.5625768 C13.7380952,2.24036026 13.9037426,1.9771829 14.2066078,1.75420342 C14.4066407,1.60693255 14.6109891,1.51455665 14.7302709,1.47758411 C14.9940333,1.3958284 15.1415789,1.11573061 15.0598232,0.851968189 C14.9780675,0.588205768 14.6979697,0.440660178 14.4342072,0.522415889 C14.2174531,0.58960094 13.9177476,0.725083083 13.6137265,0.94891355 C13.0765018,1.34443632 12.7380952,1.88209022 12.7380952,2.56257682 C12.7380953,3.10543962 13.0508269,3.54570303 13.6547752,4.07360995 C13.8150751,4.213727 13.8562349,4.24715852 14.282664,4.58870793 C15.1367565,5.2727954 15.4523809,5.63685258 15.452381,5.97894508 C15.452381,6.39287361 15.3278403,6.6183739 15.1184801,6.75038446 C14.9918799,6.83021129 14.8598236,6.86153127 14.797719,6.86404564 C14.5218026,6.87521639 14.3071839,7.10794646 14.3183547,7.3838628 C14.3295254,7.65977914 14.5622555,7.87439784 14.8381718,7.86322709 Z M10.3143623,7.86322709 C10.5358665,7.85425926 10.8292236,7.7846833 11.1280367,7.59626891 C11.6276988,7.2812107 11.9285715,6.73643374 11.9285714,5.97894499 C11.9285714,5.19736805 11.4972495,4.69985966 10.3840027,3.80820189 C9.97312207,3.47910604 9.93342013,3.44685863 9.78908335,3.32069487 C9.38838414,2.97044656 9.21428572,2.72535088 9.21428571,2.5625768 C9.21428571,2.24036026 9.37993307,1.9771829 9.68279827,1.75420342 C9.88283113,1.60693255 10.0871796,1.51455665 10.2064613,1.47758411 C10.4702238,1.3958284 10.6177694,1.11573061 10.5360136,0.851968189 C10.4542579,0.588205768 10.1741601,0.440660178 9.91039772,0.522415889 C9.69364355,0.58960094 9.39393805,0.725083083 9.08991698,0.94891355 C8.55269227,1.34443632 8.2142857,1.88209022 8.21428571,2.56257682 C8.21428573,3.10543962 8.52701733,3.54570303 9.13096566,4.07360995 C9.29126562,4.213727 9.33242538,4.24715852 9.75885446,4.58870793 C10.6129469,5.2727954 10.9285714,5.63685258 10.9285714,5.97894508 C10.9285715,6.39287361 10.8040308,6.6183739 10.5946706,6.75038446 C10.4680703,6.83021129 10.3360141,6.86153127 10.2739094,6.86404564 C9.9979931,6.87521639 9.7833744,7.10794646 9.79454516,7.3838628 C9.80571591,7.65977914 10.038446,7.87439784 10.3143623,7.86322709 Z" id="Rectangle" sketch:type="MSShapeGroup"></path>
        </g>
    </g>
</svg>