<?xml version="1.0" encoding="UTF-8" standalone="no"?>
<svg width="32px" height="32px" viewBox="0 0 32 32" version="1.1" xmlns="http://www.w3.org/2000/svg" xmlns:xlink="http://www.w3.org/1999/xlink" xmlns:sketch="http://www.bohemiancoding.com/sketch/ns">
    <!-- Generator: Sketch 3.4 (15575) - http://www.bohemiancoding.com/sketch -->
    <title>32 copy 13</title>
    <desc>Created with Sketch.</desc>
    <defs></defs>
    <g id="Page-1" stroke="none" stroke-width="1" fill="none" fill-rule="evenodd" sketch:type="MSPage">
        <g id="32-copy-13" sketch:type="MSArtboardGroup" fill="#01CD9E">
            <path d="M1,32 L8,32 C8.55228475,32 9,31.5522847 9,31 L9,25 L8,26 L15,26 C15.5522847,26 16,25.5522847 16,25 L16,18 L15,19 L22,19 C22.5522847,19 23,18.5522847 23,18 L23,11 L22,12 L31,12 C31.5522847,12 32,11.5522847 32,11 C32,10.4477153 31.5522847,10 31,10 L22,10 C21.4477153,10 21,10.4477153 21,11 L21,18 L22,17 L15,17 C14.4477153,17 14,17.4477153 14,18 L14,25 L15,24 L8,24 C7.44771525,24 7,24.4477153 7,25 L7,31 L8,30 L1,30 C0.44771525,30 0,30.4477153 0,31 C0,31.5522847 0.44771525,32 1,32 Z M5,13.4142136 L1.70710678,16.7071068 C1.31658249,17.0976311 0.68341751,17.0976311 0.292893219,16.7071068 C-0.097631073,16.3165825 -0.097631073,15.6834175 0.292893219,15.2928932 L3.58578644,12 L1,12 C0.44771525,12 0,11.5522847 0,11 C0,10.4477153 0.44771525,10 1,10 L6,10 L7,10 L7,11 L7,16 C7,16.5522847 6.55228475,17 6,17 C5.44771525,17 5,16.5522847 5,16 L5,13.4142136 L5,13.4142136 Z" id="Shape" sketch:type="MSShapeGroup"></path>
        </g>
    </g>
</svg>