<?xml version="1.0" encoding="UTF-8" standalone="no"?>
<svg width="32px" height="32px" viewBox="0 0 32 32" version="1.1" xmlns="http://www.w3.org/2000/svg" xmlns:xlink="http://www.w3.org/1999/xlink" xmlns:sketch="http://www.bohemiancoding.com/sketch/ns">
    <!-- Generator: Sketch 3.4 (15575) - http://www.bohemiancoding.com/sketch -->
    <title>32 copy 12</title>
    <desc>Created with Sketch.</desc>
    <defs></defs>
    <g id="Page-1" stroke="none" stroke-width="1" fill="none" fill-rule="evenodd" sketch:type="MSPage">
        <g id="32-copy-12" sketch:type="MSArtboardGroup" fill="#01CD9E">
            <path d="M7.46428571,30 L4.78571429,30 C4.44850199,30 4,29.5447705 4,29.1875 L4,5.8125 C4,5.45522952 4.44850199,5 4.78571429,5 L6.69510582,5 L10.7989418,5 L16,5 L23.4587054,5 L26.0308315,5 L27.2142857,5 C27.551498,5 28,5.45522952 28,5.8125 L28,29.1875 C28,29.5447705 27.551498,30 27.2142857,30 L24.5357143,30 C23.9834295,30 23.5357143,30.4477153 23.5357143,31 C23.5357143,31.5522847 23.9834295,32 24.5357143,32 L27.2142857,32 C28.6627877,32 30,30.6427295 30,29.1875 L30,5.8125 C30,4.35727048 28.6627877,3 27.2142857,3 L26.0308315,3 L23.4587054,3 L16,3 L10.7989418,3 L6.69510582,3 L4.78571429,3 C3.33721229,3 2,4.35727048 2,5.8125 L2,29.1875 C2,30.6427295 3.33721229,32 4.78571429,32 L7.46428571,32 C8.01657046,32 8.46428571,31.5522847 8.46428571,31 C8.46428571,30.4477153 8.01657046,30 7.46428571,30 L7.46428571,30 Z M21.8261719,15.1933594 C21.8261719,16.883472 21.2980196,18.1761023 20.2416992,19.0712891 C19.1853788,19.9664758 17.683278,20.4140625 15.7353516,20.4140625 L14.3066406,20.4140625 L14.3066406,26 L10.9765625,26 L10.9765625,10.2949219 L15.9931641,10.2949219 C17.8981215,10.2949219 19.346512,10.7049113 20.3383789,11.5249023 C21.3302458,12.3448934 21.8261719,13.5677002 21.8261719,15.1933594 L21.8261719,15.1933594 Z M14.3066406,17.6855469 L15.4023438,17.6855469 C16.4264374,17.6855469 17.1927058,17.4832377 17.7011719,17.0786133 C18.209638,16.6739889 18.4638672,16.0849648 18.4638672,15.3115234 C18.4638672,14.5309206 18.2508159,13.9544289 17.824707,13.5820312 C17.3985981,13.2096336 16.7307988,13.0234375 15.8212891,13.0234375 L14.3066406,13.0234375 L14.3066406,17.6855469 L14.3066406,17.6855469 Z" id="Shape" sketch:type="MSShapeGroup"></path>
        </g>
    </g>
</svg>