<?xml version="1.0" encoding="UTF-8" standalone="no"?>
<svg width="32px" height="32px" viewBox="0 0 32 32" version="1.1" xmlns="http://www.w3.org/2000/svg" xmlns:xlink="http://www.w3.org/1999/xlink" xmlns:sketch="http://www.bohemiancoding.com/sketch/ns">
    <!-- Generator: Sketch 3.4 (15575) - http://www.bohemiancoding.com/sketch -->
    <title>32 copy 11</title>
    <desc>Created with Sketch.</desc>
    <defs></defs>
    <g id="Page-1" stroke="none" stroke-width="1" fill="none" fill-rule="evenodd" sketch:type="MSPage">
        <g id="32-copy-11" sketch:type="MSArtboardGroup" fill="#01CD9E">
            <path d="M6,10.0008642 L6,28.9991358 C6,30.6515714 7.34184538,32 8.99508929,32 L23.0049107,32 C24.660147,32 26,30.6559853 26,28.9991358 L26,10.0008642 C26,8.34842856 24.6581546,7 23.0049107,7 L8.99508929,7 C7.33985298,7 6,8.34401471 6,10.0008642 L6,10.0008642 Z M24,15 L24,28.9991358 C24,29.5528019 23.5541866,30 23.0049107,30 L8.99508929,30 C8.44861194,30 8,29.5491871 8,28.9991358 L8,15 L24,15 L24,15 L24,15 Z M24,13 L24,10.0008642 C24,9.45081286 23.5513881,9 23.0049107,9 L8.99508929,9 C8.44581335,9 8,9.4471981 8,10.0008642 L8,13 L24,13 L24,13 L24,13 Z M16,29 C12.6862915,29 10,26.3137085 10,23 C10,19.6862915 12.6862915,17 16,17 C19.3137085,17 22,19.6862915 22,23 C22,26.3137085 19.3137085,29 16,29 L16,29 Z M16,27 C18.209139,27 20,25.209139 20,23 C20,20.790861 18.209139,19 16,19 C13.790861,19 12,20.790861 12,23 C12,25.209139 13.790861,27 16,27 L16,27 Z M13.538494,22.5605672 C14.3589635,22.5312067 15.2498268,22.6249134 16,23 C16.8151061,23.407553 17.4641127,23.8151061 18.2177972,24.1549648 C17.8006673,24.954313 16.9640597,25.5 16,25.5 C14.6192881,25.5 13.5,24.3807119 13.5,23 C13.5,22.8500738 13.5131975,22.7032301 13.538494,22.5605672 L13.538494,22.5605672 L13.538494,22.5605672 Z M10,12 L13,12 C13.5522847,12 14,11.5522847 14,11 C14,10.4477153 13.5522847,10 13,10 L10,10 C9.44771525,10 9,10.4477153 9,11 C9,11.5522847 9.44771525,12 10,12 L10,12 Z M19,12 C19.5522847,12 20,11.5522847 20,11 C20,10.4477153 19.5522847,10 19,10 C18.4477153,10 18,10.4477153 18,11 C18,11.5522847 18.4477153,12 19,12 L19,12 Z M22,12 C22.5522847,12 23,11.5522847 23,11 C23,10.4477153 22.5522847,10 22,10 C21.4477153,10 21,10.4477153 21,11 C21,11.5522847 21.4477153,12 22,12 L22,12 Z" id="Path" sketch:type="MSShapeGroup"></path>
        </g>
    </g>
</svg>