<?xml version="1.0" encoding="UTF-8" standalone="no"?>
<svg width="32px" height="32px" viewBox="0 0 32 32" version="1.1" xmlns="http://www.w3.org/2000/svg" xmlns:xlink="http://www.w3.org/1999/xlink" xmlns:sketch="http://www.bohemiancoding.com/sketch/ns">
    <!-- Generator: Sketch 3.4 (15575) - http://www.bohemiancoding.com/sketch -->
    <title>32 copy 10</title>
    <desc>Created with Sketch.</desc>
    <defs></defs>
    <g id="Page-1" stroke="none" stroke-width="1" fill="none" fill-rule="evenodd" sketch:type="MSPage">
        <g id="32-copy-10" sketch:type="MSArtboardGroup" fill="#01CD9E">
            <path d="M16,28 C18.948965,28 21.3333333,25.578949 21.3333333,22.6 C21.3333333,19.621051 18.948965,17.2 16,17.2 C13.051035,17.2 10.6666667,19.621051 10.6666667,22.6 C10.6666667,25.578949 13.051035,28 16,28 Z M16,26 C14.1624971,26 12.6666667,24.4811568 12.6666667,22.6 C12.6666667,20.7188432 14.1624971,19.2 16,19.2 C17.8375029,19.2 19.3333333,20.7188432 19.3333333,22.6 C19.3333333,24.4811568 17.8375029,26 16,26 Z M23.6357727,16.5896883 C21.8166875,14.2174937 19.0234778,12.8 16,12.8 C13.0346594,12.8 10.2892314,14.1632383 8.46653286,16.4585894 C8.1230861,16.8910969 8.19528414,17.5201322 8.62779168,17.8635789 C9.06029922,18.2070257 9.68933446,18.1348276 10.0327812,17.7023201 C11.4810155,15.8785374 13.6530838,14.8 16,14.8 C18.3929317,14.8 20.6031333,15.9216297 22.0486901,17.8067211 C22.3847644,18.2449819 23.012487,18.3278203 23.4507478,17.991746 C23.8890085,17.6556717 23.971847,17.0279491 23.6357727,16.5896883 Z M26.5105771,13.2194749 C23.8701157,10.1779724 20.0761446,8.4 16,8.4 C11.9666968,8.4 8.20872367,10.1405969 5.57049999,13.1268962 C5.20484296,13.5407964 5.24395178,14.1727524 5.65785198,14.5384094 C6.07175219,14.9040664 6.70370819,14.8649576 7.06936523,14.4510574 C9.33273219,11.8890718 12.5476591,10.4 16,10.4 C19.4890112,10.4 22.7348917,11.9211202 25.0003036,14.5306094 C25.3623634,14.9476599 25.9939571,14.9922387 26.4110076,14.6301789 C26.8280581,14.2681191 26.8726369,13.6365254 26.5105771,13.2194749 Z M29.4681522,9.98026031 C26.0204393,6.19468342 21.1829816,4 16,4 C10.8974226,4 6.12815335,6.1267561 2.68871042,9.81016258 C2.31178294,10.213826 2.33345666,10.8466199 2.73712003,11.2235473 C3.14078341,11.6004748 3.77357732,11.5788011 4.1505048,11.1751377 C7.21637058,7.89180666 11.4587637,6 16,6 C20.6127936,6 24.9160597,7.95232855 27.9894935,11.3269483 C28.3613712,11.7352686 28.9938465,11.7648112 29.4021669,11.3929336 C29.8104872,11.021056 29.8400299,10.3885806 29.4681522,9.98026031 Z" id="Shape" sketch:type="MSShapeGroup"></path>
        </g>
    </g>
</svg>